<?xml version="1.0" encoding="UTF-8" standalone="no"?>
<!DOCTYPE svg PUBLIC "-//W3C//DTD SVG 1.1//EN" "http://www.w3.org/Graphics/SVG/1.1/DTD/svg11.dtd">
<svg width="100%" height="100%" viewBox="0 0 256 256" version="1.1" xmlns="http://www.w3.org/2000/svg" xmlns:xlink="http://www.w3.org/1999/xlink" xml:space="preserve" xmlns:serif="http://www.serif.com/" style="fill-rule:evenodd;clip-rule:evenodd;stroke-linejoin:round;stroke-miterlimit:2;">
    <g transform="matrix(1.01273,0,0,1.01273,-1.62961,-1.62961)">
        <path d="M128,1.609C197.757,1.609 254.391,58.243 254.391,128C254.391,197.757 197.757,254.391 128,254.391C58.243,254.391 1.609,197.757 1.609,128C1.609,58.243 58.243,1.609 128,1.609ZM128,15.512C190.084,15.512 240.488,65.916 240.488,128C240.488,190.084 190.084,240.488 128,240.488C65.916,240.488 15.512,190.084 15.512,128C15.512,65.916 65.916,15.512 128,15.512Z"/>
    </g>
    <g>
        <path d="M25.103,132.405L35.989,122.311L45.898,133.63L79.36,101.232L114.072,134.834L147.277,101.232L175.685,101.232L175.685,116.122L153.379,116.122L113.294,154.768L79.797,121.526L45.436,154.768L25.103,132.405Z"/>
        <path d="M25.103,132.405L35.989,122.311L45.898,133.63L79.36,101.232L79.797,121.526L45.436,154.768L25.103,132.405Z"/>
        <g transform="matrix(0.753786,0,0,0.753786,38.7754,23.547)">
            <circle cx="172.35" cy="138.571" r="9.279"/>
        </g>
    </g>
    <g transform="matrix(-3.12663e-16,1.70206,-1.70206,-3.12663e-16,321.716,-107.498)">
        <path d="M149.758,79.218C148.376,74.06 143.701,70.473 138.361,70.473C133.02,70.473 128.346,74.06 126.964,79.218L133.232,80.898C133.854,78.576 135.958,76.962 138.361,76.962C140.764,76.962 142.867,78.576 143.489,80.898L149.758,79.218Z"/>
    </g>
    <g transform="matrix(-6.25858e-16,3.40701,-3.40701,-6.25858e-16,462.554,-343.397)">
        <path d="M149.758,79.218C148.376,74.06 143.701,70.473 138.361,70.473C133.02,70.473 128.346,74.06 126.964,79.218L130.383,80.134C131.35,76.523 134.622,74.013 138.361,74.013C142.099,74.013 145.371,76.523 146.339,80.134L149.758,79.218Z"/>
    </g>
</svg>
