<?xml version="1.0" encoding="UTF-8"?>
<svg width="512px" height="512px" viewBox="0 0 512 512" version="1.1" xmlns="http://www.w3.org/2000/svg" xmlns:xlink="http://www.w3.org/1999/xlink">
    <title>Telemetron@1x</title>
    <defs>
        <linearGradient x1="50%" y1="0%" x2="50%" y2="100%" id="linearGradient-1">
            <stop stop-color="#FFFFFF" stop-opacity="0" offset="0%"></stop>
            <stop stop-color="#000000" stop-opacity="0.117242133" offset="100%"></stop>
        </linearGradient>
        <path d="M125.630375,-5.07561751e-15 L386.369625,5.07561751e-15 C430.054043,-2.94907994e-15 445.895069,4.54845495 461.865439,13.0895025 C477.83581,21.63055 490.36945,34.1641902 498.910498,50.1345605 C507.451545,66.1049309 512,81.9459565 512,125.630375 L512,386.369625 C512,430.054043 507.451545,445.895069 498.910498,461.865439 C490.36945,477.83581 477.83581,490.36945 461.865439,498.910498 C445.895069,507.451545 430.054043,512 386.369625,512 L125.630375,512 C81.9459565,512 66.1049309,507.451545 50.1345605,498.910498 C34.1641902,490.36945 21.63055,477.83581 13.0895025,461.865439 C4.54845495,445.895069 1.96605329e-15,430.054043 -3.38374501e-15,386.369625 L3.38374501e-15,125.630375 C-1.96605329e-15,81.9459565 4.54845495,66.1049309 13.0895025,50.1345605 C21.63055,34.1641902 34.1641902,21.63055 50.1345605,13.0895025 C66.1049309,4.54845495 81.9459565,2.94907994e-15 125.630375,-5.07561751e-15 Z" id="path-2"></path>
        <path d="M328.079042,112.359942 C353.388828,112.381399 375.306476,127.022767 385.845998,148.369033 C390.141108,156.937405 392.554195,166.629678 392.554195,176.89019 C392.554195,181.381708 388.952995,184.976778 384.467607,184.976778 C380.006427,184.976778 376.365301,181.375578 376.365301,176.89019 C376.365301,169.150204 374.569338,162.018539 371.351836,155.500697 C363.458591,139.61282 347.337288,128.714074 328.609791,128.548287 C326.344069,128.714042 324.038421,127.931163 322.325296,126.196582 C319.150786,123.019007 319.150786,117.923018 322.325296,114.748508 C322.555578,115.043237 322.472661,113.078343 328.078649,112.359942 Z M330.625111,78 C383.796646,78.041975 426.915945,121.095255 426.915945,174.312374 C426.915945,179.72502 422.47009,184.170482 417.011467,184.170482 C411.556144,184.170482 407.132138,179.731072 407.132138,174.312374 C407.070835,132.061545 372.879085,97.8670203 330.625111,97.7841267 L330.625111,97.8301776 C325.169789,97.8301776 320.745783,93.3661673 320.745783,87.9044785 C320.745783,82.4240056 325.163422,78 330.625111,78 Z" id="path-3"></path>
        <filter x="-14.5%" y="-13.6%" width="129.0%" height="129.0%" filterUnits="objectBoundingBox" id="filter-4">
            <feMorphology radius="1" operator="dilate" in="SourceAlpha" result="shadowSpreadOuter1"></feMorphology>
            <feOffset dx="0" dy="1" in="shadowSpreadOuter1" result="shadowOffsetOuter1"></feOffset>
            <feGaussianBlur stdDeviation="4" in="shadowOffsetOuter1" result="shadowBlurOuter1"></feGaussianBlur>
            <feColorMatrix values="0 0 0 0 0   0 0 0 0 0   0 0 0 0 0  0 0 0 0.13 0" type="matrix" in="shadowBlurOuter1"></feColorMatrix>
        </filter>
        <path d="M353,201.800796 C353,175.949367 332.160518,155 306.442918,155 L164.557082,155 C138.840274,155 118,175.948571 118,201.800796 L118,233 L353,233 L353,201.800796 Z M161.237155,212.943653 C152.811891,212.943653 145.716808,205.811508 145.716808,197.342061 C145.716808,188.872614 152.811812,181.740469 161.237155,181.740469 C169.662418,181.740469 176.757502,188.872614 176.757502,197.342061 C176.757502,205.811508 169.662497,212.943653 161.237155,212.943653 Z M210.011995,212.943653 C201.586731,212.943653 194.491648,205.811508 194.491648,197.342061 C194.491648,188.872614 201.586652,181.740469 210.011995,181.740469 C218.437337,181.740469 225.532341,188.872614 225.532341,197.342061 C225.529249,205.811429 218.437337,212.943653 210.011995,212.943653 Z M353,245 L118,245 L118,316 L353,316 L353,245 Z M161.235849,296.028526 C152.810529,296.028526 145.715398,288.927971 145.715398,280.496038 C145.715398,272.064105 152.81045,264.96355 161.235849,264.96355 C169.661169,264.96355 176.756301,272.064105 176.756301,280.496038 C176.756301,288.927971 169.661248,296.028526 161.235849,296.028526 Z M210.011018,296.028526 C201.585697,296.028526 194.490566,288.927971 194.490566,280.496038 C194.490566,272.064105 201.585618,264.96355 210.011018,264.96355 C218.436417,264.96355 225.531469,272.064105 225.531469,280.496038 C225.528376,288.927892 218.436417,296.028526 210.011018,296.028526 Z M353,330 L118,330 L118,351.935231 C118,377.380099 138.839482,398 164.557082,398 L306.442918,398 C332.159726,398 353,386.154192 353,360.70854 L353,330 Z M161.235571,376.064769 C152.810308,376.064769 145.715224,369.04479 145.715224,360.70854 C145.715224,352.372369 152.810229,345.352312 161.235571,345.352312 C169.660834,345.352312 176.755918,352.372291 176.755918,360.70854 C176.755918,369.044711 169.660914,376.064769 161.235571,376.064769 Z M210.010411,376.064769 C201.585148,376.064769 194.490064,369.04479 194.490064,360.70854 C194.490064,352.372369 201.585068,345.352312 210.010411,345.352312 C218.435753,345.352312 225.530758,352.372291 225.530758,360.70854 C225.527665,369.044711 218.435753,376.064769 210.010411,376.064769 Z" id="path-5"></path>
        <filter x="-6.6%" y="-6.0%" width="113.2%" height="112.8%" filterUnits="objectBoundingBox" id="filter-6">
            <feMorphology radius="1" operator="dilate" in="SourceAlpha" result="shadowSpreadOuter1"></feMorphology>
            <feOffset dx="0" dy="1" in="shadowSpreadOuter1" result="shadowOffsetOuter1"></feOffset>
            <feGaussianBlur stdDeviation="4" in="shadowOffsetOuter1" result="shadowBlurOuter1"></feGaussianBlur>
            <feColorMatrix values="0 0 0 0 0   0 0 0 0 0   0 0 0 0 0  0 0 0 0.13 0" type="matrix" in="shadowBlurOuter1"></feColorMatrix>
        </filter>
    </defs>
    <g id="Telemetron" stroke="none" stroke-width="1" fill="none" fill-rule="evenodd">
        <rect fill="#FFFFFF" x="0" y="0" width="512" height="512"></rect>
        <g id="Rectangle">
            <use fill="#DA561E" xlink:href="#path-2"></use>
            <use fill="url(#linearGradient-1)" xlink:href="#path-2"></use>
        </g>
        <g id="Path-2" fill-rule="nonzero">
            <use fill="black" fill-opacity="1" filter="url(#filter-4)" xlink:href="#path-3"></use>
            <use fill="#FFFFFF" xlink:href="#path-3"></use>
        </g>
        <g id="Shape" fill-rule="nonzero">
            <use fill="black" fill-opacity="1" filter="url(#filter-6)" xlink:href="#path-5"></use>
            <use fill="#FFFFFF" xlink:href="#path-5"></use>
        </g>
    </g>
</svg>